<?xml version="1.0" encoding="UTF-8" standalone="no"?>
<!-- Created with Inkscape (http://www.inkscape.org/) -->

<svg
   width="210mm"
   height="297mm"
   viewBox="0 0 210 297"
   version="1.1"
   id="svg5"
   xml:space="preserve"
   inkscape:version="1.2.1 (9c6d41e410, 2022-07-14)"
   sodipodi:docname="logo design 2 v2.svg"
   xmlns:inkscape="http://www.inkscape.org/namespaces/inkscape"
   xmlns:sodipodi="http://sodipodi.sourceforge.net/DTD/sodipodi-0.dtd"
   xmlns="http://www.w3.org/2000/svg"
   xmlns:svg="http://www.w3.org/2000/svg"><sodipodi:namedview
     id="namedview7"
     pagecolor="#ffffff"
     bordercolor="#000000"
     borderopacity="0.25"
     inkscape:showpageshadow="2"
     inkscape:pageopacity="0.0"
     inkscape:pagecheckerboard="0"
     inkscape:deskcolor="#d1d1d1"
     inkscape:document-units="mm"
     showgrid="false"
     inkscape:zoom="0.70710678"
     inkscape:cx="456.79098"
     inkscape:cy="380.42345"
     inkscape:window-width="1920"
     inkscape:window-height="1046"
     inkscape:window-x="-11"
     inkscape:window-y="-11"
     inkscape:window-maximized="1"
     inkscape:current-layer="g5489" /><defs
     id="defs2" /><g
     inkscape:label="Layer 1"
     inkscape:groupmode="layer"
     id="layer1"><g
       id="g4656"
       transform="translate(-6.8791667,-16.139583)"><g
         id="g4638"
         transform="matrix(0.45935425,0,0,0.598192,51.690261,15.438737)"><g
           id="g5489"
           transform="matrix(1.000177,0,0,0.9722478,376.67767,115.61734)"><g
             id="g11484"
             transform="matrix(0.5643976,-0.65211732,1.0449889,0.5643976,-329.17147,-272.31704)"><path
               id="path11463"
               style="fill:#666666;fill-opacity:1;stroke:none;stroke-width:2.06618;stroke-linejoin:round"
               d="m -242.98602,229.89221 -95.9162,53.41499 18.48198,5.80961 86.54696,-49.32991 1.41885,-0.93053 -1.30178,-5.50421 z"
               sodipodi:nodetypes="ccccccc" /><path
               id="path11465"
               style="fill:#666666;fill-opacity:1;stroke:none;stroke-width:2.0211;stroke-linejoin:round"
               d="m -281.63605,218.96776 -93.6735,51.62241 18.10546,5.67445 85.15642,-47.85564 0.38304,0.0934 -2.25546,-6.73592 z"
               sodipodi:nodetypes="ccccccc" /><path
               id="path11467"
               style="fill:#666666;fill-opacity:1;stroke:none;stroke-width:2.0633;stroke-linejoin:round"
               d="m -279.61889,187.12262 -132.098,70.97055 18.01133,5.94477 132.09801,-70.97055 z"
               sodipodi:nodetypes="ccccc" /><path
               id="path11469"
               style="fill:#666666;fill-opacity:1;stroke:none;stroke-width:2.15508;stroke-linejoin:round;stroke-dasharray:none"
               d="m -168.9321,223.80266 -139.19304,73.48916 18.97873,6.15574 124.81642,-68.95641 -4.76245,-11.28812 z"
               sodipodi:nodetypes="cccccc" /><path
               id="path11471"
               style="fill:#666666;fill-opacity:1;stroke:none;stroke-width:1.76319;stroke-linejoin:round"
               d="m -277.75444,187.63373 109.26653,36.20166 3.00527,7.94866 -2.16415,4.57521 -123.06298,-40.77264 z"
               sodipodi:nodetypes="cccccc" /></g><path
             id="path11473"
             style="fill:none;stroke:#000000;stroke-width:3.90133;stroke-linejoin:round"
             d="M -428.79169,7.6393169 -305.92635,49.695617 V 23.403161 l -122.86534,-42.056293 z" /><path
             id="path11475"
             style="fill:none;stroke:#000000;stroke-width:3.90133;stroke-linejoin:round"
             d="m -429.36758,51.687118 122.86534,42.056295 V 67.450964 l -122.86534,-42.05629 z" /><path
             id="path11477"
             style="fill:none;stroke:#000000;stroke-width:3.90133;stroke-linejoin:round"
             d="m -429.36758,95.734925 122.86534,42.056255 V 111.49876 L -429.36758,69.442466 Z" /></g></g><g
         id="g4664"
         transform="matrix(-0.45935425,0,0,0.598192,129.28473,-30.33418)"><g
           id="g4669"
           transform="translate(-36.863343,7.9614906)" /></g></g></g></svg>
