<?xml version="1.0" encoding="UTF-8" standalone="no"?>
<!-- Created with Inkscape (http://www.inkscape.org/) -->

<svg
   width="210mm"
   height="297mm"
   viewBox="0 0 210 297"
   version="1.1"
   id="svg5"
   xml:space="preserve"
   inkscape:version="1.2.1 (9c6d41e410, 2022-07-14)"
   sodipodi:docname="logo design 3.svg"
   xmlns:inkscape="http://www.inkscape.org/namespaces/inkscape"
   xmlns:sodipodi="http://sodipodi.sourceforge.net/DTD/sodipodi-0.dtd"
   xmlns="http://www.w3.org/2000/svg"
   xmlns:svg="http://www.w3.org/2000/svg"><sodipodi:namedview
     id="namedview7"
     pagecolor="#ffffff"
     bordercolor="#000000"
     borderopacity="0.25"
     inkscape:showpageshadow="2"
     inkscape:pageopacity="0.0"
     inkscape:pagecheckerboard="0"
     inkscape:deskcolor="#d1d1d1"
     inkscape:document-units="mm"
     showgrid="false"
     inkscape:zoom="0.5"
     inkscape:cx="142"
     inkscape:cy="708"
     inkscape:window-width="1920"
     inkscape:window-height="1046"
     inkscape:window-x="-11"
     inkscape:window-y="-11"
     inkscape:window-maximized="1"
     inkscape:current-layer="g4638" /><defs
     id="defs2" /><g
     inkscape:label="Layer 1"
     inkscape:groupmode="layer"
     id="layer1"><g
       id="g4656"
       transform="translate(-6.8791667,-16.139583)"><g
         id="g4638"
         transform="matrix(0.45935425,0,0,0.598192,51.690261,15.438737)"><g
           id="g5489"
           transform="matrix(1.000177,0,0,0.9722478,-0.01971421,126.23266)"><path
             id="path4711"
             style="fill:#666666;fill-opacity:1;stroke:none;stroke-width:2.06618;stroke-linejoin:round"
             d="m 150.38287,303.23624 -95.916202,53.41499 18.481982,5.80961 86.54696,-49.32991 1.41885,-0.93053 -1.30178,-5.50421 z"
             sodipodi:nodetypes="ccccccc" /><path
             id="path4713"
             style="fill:#666666;fill-opacity:1;stroke:none;stroke-width:2.0211;stroke-linejoin:round"
             d="m 111.73284,292.31179 -93.673498,51.62241 18.105462,5.67445 85.156416,-47.85564 0.38304,0.0934 -2.25546,-6.73592 z"
             sodipodi:nodetypes="ccccccc" /><path
             id="path4715"
             style="fill:#666666;fill-opacity:1;stroke:none;stroke-width:3.90133;stroke-linejoin:round"
             d="M 279.75666,-39.448184 37.197586,133.71883 70.270099,140.52381 312.82918,-32.643202 Z"
             sodipodi:nodetypes="ccccc"
             transform="matrix(0.54460137,0.07407272,0,0.51359408,-38.605859,260.00467)" /><path
             id="path4724"
             style="fill:#666666;fill-opacity:1;stroke:none;stroke-width:2.15508;stroke-linejoin:round;stroke-dasharray:none"
             d="m 224.43679,297.14669 -139.193041,73.48916 18.978731,6.15574 124.81642,-68.95641 -4.76245,-11.28812 z"
             sodipodi:nodetypes="cccccc" /><path
             id="path4734"
             style="fill:#666666;fill-opacity:1;stroke:none;stroke-width:1.76319;stroke-linejoin:round"
             d="m 115.61445,260.97776 109.26653,36.20166 3.00527,7.94866 -2.16415,4.57521 -123.06298,-40.77264 z"
             sodipodi:nodetypes="cccccc" /><path
             id="path4705"
             style="fill:none;stroke:#000000;stroke-width:3.90133;stroke-linejoin:round"
             d="M -18.146074,244.75824 104.71927,286.8145 V 260.52207 L -18.146074,218.46581 Z" /><path
             id="path4707"
             style="fill:none;stroke:#000000;stroke-width:3.90133;stroke-linejoin:round"
             d="M -18.721962,288.806 104.14338,330.86225 V 304.56983 L -18.721962,262.51358 Z" /><path
             id="path4709"
             style="fill:none;stroke:#000000;stroke-width:3.90133;stroke-linejoin:round"
             d="M -18.721962,332.85376 104.14338,374.91001 V 348.61759 L -18.721962,306.56133 Z" /></g></g><g
         id="g4664"
         transform="matrix(-0.45935425,0,0,0.598192,129.28473,-30.33418)"><g
           id="g4669"
           transform="translate(-36.863343,7.9614906)" /></g></g></g></svg>
