<?xml version="1.0" encoding="UTF-8" standalone="no"?>
<!-- Created with Inkscape (http://www.inkscape.org/) -->

<svg
   width="210mm"
   height="297mm"
   viewBox="0 0 210 297"
   version="1.1"
   id="svg5"
   xml:space="preserve"
   inkscape:version="1.2.1 (9c6d41e410, 2022-07-14)"
   sodipodi:docname="logo design 1.svg"
   xmlns:inkscape="http://www.inkscape.org/namespaces/inkscape"
   xmlns:sodipodi="http://sodipodi.sourceforge.net/DTD/sodipodi-0.dtd"
   xmlns="http://www.w3.org/2000/svg"
   xmlns:svg="http://www.w3.org/2000/svg"><sodipodi:namedview
     id="namedview7"
     pagecolor="#ffffff"
     bordercolor="#000000"
     borderopacity="0.25"
     inkscape:showpageshadow="2"
     inkscape:pageopacity="0.0"
     inkscape:pagecheckerboard="0"
     inkscape:deskcolor="#d1d1d1"
     inkscape:document-units="mm"
     showgrid="false"
     inkscape:zoom="0.70710678"
     inkscape:cx="-89.095454"
     inkscape:cy="675.99408"
     inkscape:window-width="1920"
     inkscape:window-height="1046"
     inkscape:window-x="-11"
     inkscape:window-y="-11"
     inkscape:window-maximized="1"
     inkscape:current-layer="g4638" /><defs
     id="defs2" /><g
     inkscape:label="Layer 1"
     inkscape:groupmode="layer"
     id="layer1"><g
       id="g4656"
       transform="translate(-6.8791667,-16.139583)"><g
         id="g4638"
         transform="matrix(0.45935425,0,0,0.598192,51.690261,15.438737)"><path
           style="fill:#000000;stroke-width:0.890184"
           d="m -299.60825,197.02981 c -5.3393,-0.27178 -10.25129,-1.81231 -11.12229,-3.48821 -1.90657,-3.66854 -15.21564,-8.74081 -28.56324,-10.88585 -6.31609,-1.01501 -6.35154,-1.81789 -0.11171,-2.52898 4.29356,-0.48929 5.06864,-0.81758 9.1997,-3.89689 3.97201,-2.96074 4.24024,-3.58302 2.24444,-5.20678 -2.62049,-2.13202 -10.01631,-4.93549 -13.15979,-4.98835 -1.49587,-0.0251 -3.69055,1.34191 -7.1809,4.47294 -3.69624,3.31572 -5.90305,4.66192 -8.33792,5.08629 -6.00698,1.0469 -6.65881,0.0613 -2.00176,-3.02659 2.48302,-1.64638 5.77537,-4.65587 7.31638,-6.68774 3.16362,-4.17138 7.09813,-5.59811 15.32091,-5.55569 l 4.73928,0.0246 2.53644,3.08068 c 3.42007,4.15392 5.09258,5.08817 9.37945,5.23919 1.95307,0.0687 3.82943,0.39905 4.1697,0.7339 0.34028,0.33484 -2.41814,3.01435 -6.12984,5.95445 -5.55733,4.40207 -6.4033,5.52851 -4.79267,6.38165 2.07534,1.0993 20.10587,7.38802 20.59444,7.18297 0.6523,-0.27375 5.47426,-7.12697 6.44963,-9.16657 0.57856,-1.20985 2.07339,-2.50288 3.32182,-2.8734 1.8419,-0.54666 2.14105,0.0375 1.58669,3.09837 -1.19726,6.61032 -1.40909,9.46225 -0.9527,12.82426 0.46951,3.45857 -0.56273,4.42663 -4.50613,4.22588 z m 21.35756,-9.63821 c -0.35486,-0.34917 -0.4463,-2.35731 -0.20329,-4.46255 0.80022,-6.9321 -5.81687,-13.58815 -20.47667,-20.59714 -10.61599,-5.07564 -40.29028,-15.24818 -48.08475,-16.48382 -3.10593,-0.49235 -5.71984,-1.0787 -5.80874,-1.30302 -0.0888,-0.2243 1.78696,-0.82371 4.16853,-1.33202 6.0174,-1.28421 10.03804,-3.98935 12.13737,-8.16572 l 1.78719,-3.55538 6.82015,-0.68464 c 9.68745,-0.9725 12.80648,-0.53961 13.19711,1.83155 0.17096,1.03781 1.33695,2.67295 2.59108,3.63365 4.8665,3.7279 23.49943,11.82649 40.64329,17.66512 16.60931,5.6566 28.89417,6.76041 42.37767,3.80764 4.6617,-1.02089 5.18548,-1.31234 4.67465,-2.60153 -0.3412,-0.8611 -3.28428,-2.65382 -7.23308,-4.40589 -7.54616,-3.34819 -10.2622,-5.16002 -6.65017,-4.4362 2.28466,0.45786 19.93644,5.03662 28.10135,7.28939 l 4.76032,1.31342 -3.22537,1.97493 c -4.06955,2.49184 -11.42282,4.67008 -19.52233,5.78302 -19.67262,2.70324 -38.18853,-1.40156 -73.37463,-16.2664 -9.77835,-4.13101 -19.63837,-8.04957 -21.91117,-8.70795 -3.98267,-1.15366 -4.24679,-1.13917 -7.29097,0.40103 -1.73723,0.87895 -4.15825,2.31044 -5.38001,3.18112 l -2.22141,1.58303 18.31392,6.69888 c 41.96229,15.34899 51.69978,22.71582 45.83975,34.67971 -1.53193,3.12755 -2.94031,4.2319 -4.02979,3.15983 z m -96.91658,-14.13097 c -2.62992,0.18137 -11.04382,-1.84055 -9.81144,-2.35773 0.50463,-0.21178 -0.11114,-1.39723 -1.36836,-2.63435 -1.83257,-1.80331 -3.58953,-2.62965 -8.86034,-4.16732 -3.61599,-1.05491 -7.52841,-2.1258 -8.69427,-2.38021 -1.53064,-0.33405 -1.4202,-0.68842 0.39738,-1.27611 4.20262,-1.35884 8.06028,-0.76381 16.64697,2.56774 l 7.666,2.97433 2.81205,-1.76765 c 5.562,-3.49632 5.4784,-3.57012 -9.40355,-8.30293 -9.57712,-3.04576 -14.43219,-4.30995 -17.70918,-4.61133 -6.42305,-0.59051 -7.33976,-1.09537 -4.303,-2.36976 3.62021,-1.51927 11.80387,-2.64303 13.94281,-1.91458 0.95857,0.32649 4.2953,1.8871 7.41489,3.46805 3.11956,1.58097 8.31069,3.9402 11.53584,5.24273 l 5.86388,2.36823 3.30818,-2.02556 c 5.64396,-3.45575 5.44991,-3.74053 -4.8188,-7.07223 -4.95833,-1.60875 -9.10382,-3.14887 -9.21225,-3.42251 -0.34736,-0.87663 10.97046,-2.00978 14.05136,-1.40683 3.36624,0.65883 16.61283,10.40613 15.69005,11.54536 -0.3294,0.40665 -1.95031,0.37229 -4.01784,-0.0852 -1.90615,-0.42175 -3.99591,-0.54432 -4.64391,-0.27235 -2.85099,1.19643 -9.79699,9.08197 -11.44559,12.99373 -1.94735,4.62067 -2.02732,4.69851 -5.04088,4.90633 z"
           id="path5474"
           inkscape:transform-center-x="-4.6182787"
           inkscape:transform-center-y="4.8248124"
           sodipodi:nodetypes="sssssssssssscssssssssssssssssssscssssssssscsssssscsssssssssscssssssscsssssssss" /><path
           id="path4671"
           style="fill:#000000;fill-opacity:0.254237;stroke:none;stroke-width:2.78048;stroke-linejoin:round"
           d="M 261.82678,92.320223 86.199296,189.25897 110.14581,197.37894 285.77329,100.44019 Z"
           sodipodi:nodetypes="ccccc" /><path
           id="path4673"
           style="fill:#000000;fill-opacity:0.254237;stroke:none;stroke-width:2.78048;stroke-linejoin:round"
           d="M 213.42234,75.906874 37.794878,172.84563 61.741381,180.96559 237.36885,84.026841 Z"
           sodipodi:nodetypes="ccccc" /><path
           id="path4675"
           style="fill:#000000;fill-opacity:0.254237;stroke:none;stroke-width:2.78048;stroke-linejoin:round"
           d="M 165.01792,59.493528 -10.609564,156.43228 13.336942,164.55225 188.96443,67.613496 Z"
           sodipodi:nodetypes="ccccc" /><g
           id="g5489"
           transform="matrix(1.000177,0,0,0.9722478,-0.01971421,126.23266)"><path
             id="path4711"
             style="fill:#666666;fill-opacity:1;stroke:none;stroke-width:2.06618;stroke-linejoin:round"
             d="m 150.38287,303.23624 -95.916202,53.41499 18.481982,5.80961 86.54696,-49.32991 1.41885,-0.93053 -1.30178,-5.50421 z"
             sodipodi:nodetypes="ccccccc" /><path
             id="path4713"
             style="fill:#666666;fill-opacity:1;stroke:none;stroke-width:2.0211;stroke-linejoin:round"
             d="m 111.73284,292.31179 -93.673498,51.62241 18.105462,5.67445 85.156416,-47.85564 0.38304,0.0934 -2.25546,-6.73592 z"
             sodipodi:nodetypes="ccccccc" /><path
             id="path4715"
             style="fill:#666666;fill-opacity:1;stroke:none;stroke-width:3.90133;stroke-linejoin:round"
             d="M 279.75666,-39.448184 37.197586,133.71883 70.270099,140.52381 312.82918,-32.643202 Z"
             sodipodi:nodetypes="ccccc"
             transform="matrix(0.54460137,0.07407272,0,0.51359408,-38.605859,260.00467)" /><path
             id="path4724"
             style="fill:#666666;fill-opacity:1;stroke:none;stroke-width:2.15508;stroke-linejoin:round;stroke-dasharray:none"
             d="m 224.43679,297.14669 -139.193041,73.48916 18.978731,6.15574 124.81642,-68.95641 -4.76245,-11.28812 z"
             sodipodi:nodetypes="cccccc" /><path
             id="path4734"
             style="fill:#666666;fill-opacity:1;stroke:none;stroke-width:1.76319;stroke-linejoin:round"
             d="m 115.61445,260.97776 109.26653,36.20166 3.00527,7.94866 -2.16415,4.57521 -123.06298,-40.77264 z"
             sodipodi:nodetypes="cccccc" /><path
             id="path4705"
             style="fill:none;stroke:#000000;stroke-width:3.90133;stroke-linejoin:round"
             d="M -18.146074,244.75824 104.71927,286.8145 V 260.52207 L -18.146074,218.46581 Z" /><path
             id="path4707"
             style="fill:none;stroke:#000000;stroke-width:3.90133;stroke-linejoin:round"
             d="M -18.721962,288.806 104.14338,330.86225 V 304.56983 L -18.721962,262.51358 Z" /><path
             id="path4709"
             style="fill:none;stroke:#000000;stroke-width:3.90133;stroke-linejoin:round"
             d="M -18.721962,332.85376 104.14338,374.91001 V 348.61759 L -18.721962,306.56133 Z" /><g
             id="g11484"
             transform="matrix(0.5643976,-0.65211732,1.0449889,0.5643976,-321.10898,-112.18168)"><path
               id="path11463"
               style="fill:#666666;fill-opacity:1;stroke:none;stroke-width:2.06618;stroke-linejoin:round"
               d="m -242.98602,229.89221 -95.9162,53.41499 18.48198,5.80961 86.54696,-49.32991 1.41885,-0.93053 -1.30178,-5.50421 z"
               sodipodi:nodetypes="ccccccc" /><path
               id="path11465"
               style="fill:#666666;fill-opacity:1;stroke:none;stroke-width:2.0211;stroke-linejoin:round"
               d="m -281.63605,218.96776 -93.6735,51.62241 18.10546,5.67445 85.15642,-47.85564 0.38304,0.0934 -2.25546,-6.73592 z"
               sodipodi:nodetypes="ccccccc" /><path
               id="path11467"
               style="fill:#666666;fill-opacity:1;stroke:none;stroke-width:2.0633;stroke-linejoin:round"
               d="m -279.61889,187.12262 -132.098,70.97055 18.01133,5.94477 132.09801,-70.97055 z"
               sodipodi:nodetypes="ccccc" /><path
               id="path11469"
               style="fill:#666666;fill-opacity:1;stroke:none;stroke-width:2.15508;stroke-linejoin:round;stroke-dasharray:none"
               d="m -168.9321,223.80266 -139.19304,73.48916 18.97873,6.15574 124.81642,-68.95641 -4.76245,-11.28812 z"
               sodipodi:nodetypes="cccccc" /><path
               id="path11471"
               style="fill:#666666;fill-opacity:1;stroke:none;stroke-width:1.76319;stroke-linejoin:round"
               d="m -277.75444,187.63373 109.26653,36.20166 3.00527,7.94866 -2.16415,4.57521 -123.06298,-40.77264 z"
               sodipodi:nodetypes="cccccc" /></g><path
             id="path11473"
             style="fill:none;stroke:#000000;stroke-width:3.90133;stroke-linejoin:round"
             d="m -420.7292,167.77477 122.86534,42.05626 V 183.5386 L -420.7292,141.48234 Z" /><path
             id="path11475"
             style="fill:none;stroke:#000000;stroke-width:3.90133;stroke-linejoin:round"
             d="m -421.30509,211.82253 122.86534,42.05625 v -26.29242 l -122.86534,-42.05625 z" /><path
             id="path11477"
             style="fill:none;stroke:#000000;stroke-width:3.90133;stroke-linejoin:round"
             d="m -421.30509,255.87029 122.86534,42.05625 v -26.29242 l -122.86534,-42.05626 z" /></g><path
           id="rect4424"
           style="fill:#ffffff;stroke:#000000;stroke-width:3.90133;stroke-linejoin:round"
           d="M -11.390812,50.166139 111.47453,92.222396 V 65.929968 L -11.390812,23.873711 Z" /><path
           id="path4631"
           style="fill:#ffffff;stroke:#000000;stroke-width:3.90133;stroke-linejoin:round"
           d="M -11.390809,103.3125 111.47453,145.36875 V 119.07633 L -11.390809,77.02008 Z" /><path
           id="path4633"
           style="fill:#ffffff;stroke:#000000;stroke-width:3.90133;stroke-linejoin:round"
           d="M -11.390814,156.45887 111.47454,198.51512 V 172.2227 L -11.390814,130.16644 Z" /></g><g
         id="g4664"
         transform="matrix(-0.45935425,0,0,0.598192,129.28473,-30.33418)"><g
           id="g4669"
           transform="translate(-36.863343,7.9614906)" /></g></g></g></svg>
